<?xml version="1.0" standalone="no"?>
<!DOCTYPE svg PUBLIC "-//W3C//DTD SVG 20010904//EN"
 "http://www.w3.org/TR/2001/REC-SVG-20010904/DTD/svg10.dtd">
<svg version="1.0" xmlns="http://www.w3.org/2000/svg"
 width="202.000000pt" height="202.000000pt" viewBox="0 0 202.000000 202.000000"
 preserveAspectRatio="xMidYMid meet">
<metadata>
Created by potrace 1.11, written by Peter Selinger 2001-2013
</metadata>
<g transform="translate(0.000000,202.000000) scale(0.100000,-0.100000)"
fill="#000000" stroke="none">
<path d="M850 1969 l-85 -5 92 -2 c99 -2 112 -8 185 -87 29 -31 93 -153 85
-161 -2 -3 -25 0 -50 6 -77 17 -287 24 -335 11 -24 -7 -75 -14 -115 -17 -40
-3 -82 -7 -94 -9 -13 -3 -35 -8 -50 -11 -35 -7 -172 -52 -191 -63 -8 -5 27 -6
77 -3 58 3 91 1 91 -6 0 -5 -6 -12 -13 -15 -6 -2 -38 -26 -70 -52 -128 -104
-227 -259 -271 -424 -14 -50 -23 -91 -20 -91 2 0 -5 -22 -16 -50 -12 -29 -15
-49 -9 -47 7 1 13 -29 15 -86 8 -216 113 -462 251 -587 l38 -35 -31 35 c-83
96 -162 246 -171 328 -2 26 -3 45 0 42 3 -3 24 -39 48 -80 23 -41 61 -100 84
-130 23 -30 50 -79 60 -107 11 -31 22 -48 26 -41 4 6 5 17 2 25 -8 20 1 16 38
-17 136 -123 335 -217 520 -246 62 -9 209 -12 214 -4 2 4 -15 6 -38 5 -39 -3
-46 1 -93 50 -54 55 -98 122 -109 166 l-7 27 49 -9 c44 -9 189 -5 308 7 28 3
89 5 136 4 96 -1 193 17 285 52 l61 23 -96 0 c-53 1 -104 4 -115 8 -16 6 -13
11 25 37 137 93 254 248 309 410 12 36 35 91 51 122 16 31 36 76 44 100 l16
43 -26 -27 c-14 -16 -28 -28 -30 -28 -2 0 -4 29 -4 64 2 275 -124 550 -333
726 -61 51 -60 51 13 -21 88 -85 124 -136 179 -251 64 -132 66 -230 4 -105
-15 29 -35 64 -46 79 -10 15 -32 64 -49 110 -33 91 -54 124 -46 71 3 -17 3
-34 0 -37 -3 -3 -31 17 -61 45 -200 183 -464 276 -732 258z m271 -39 c188 -47
353 -155 485 -316 33 -40 36 -48 30 -86 -9 -53 -41 -126 -68 -155 l-21 -23
-33 53 c-18 28 -45 75 -60 102 -104 193 -249 342 -414 422 -37 18 -41 22 -20
22 14 1 59 -8 101 -19z m-391 -436 c14 -3 41 -10 60 -16 l35 -11 -35 -12 c-28
-10 -43 -9 -75 2 -57 20 -92 18 -154 -6 -30 -11 -56 -19 -58 -17 -2 2 27 20
64 40 55 29 75 35 103 30 19 -3 46 -8 60 -10z m1035 -252 c17 -113 10 -220
-21 -314 -15 -45 -18 -48 -52 -49 -20 -1 -47 0 -60 1 -12 1 -38 -9 -58 -21
l-36 -22 15 30 c9 17 27 38 41 47 55 35 121 223 133 374 7 100 17 88 38 -46z
m-1335 -120 c0 -3 -20 -46 -44 -96 -44 -89 -68 -166 -81 -256 -9 -59 -8 -217
1 -232 4 -6 3 -8 -3 -5 -15 9 -51 111 -67 187 -26 123 -11 340 25 376 19 18
169 41 169 26z m66 -543 c14 -23 43 -60 65 -84 21 -23 61 -76 88 -117 88 -136
178 -217 318 -290 77 -40 71 -48 -22 -29 -219 48 -388 143 -527 299 -35 39
-37 45 -33 91 3 28 10 63 16 78 10 27 56 93 64 93 3 0 16 -19 31 -41z m881
-42 l52 -2 -42 -22 c-23 -11 -44 -20 -47 -18 -3 2 -21 6 -40 9 -20 3 -53 13
-75 22 l-40 17 30 12 c24 10 37 10 70 -2 22 -8 63 -15 92 -16z"/>
<path d="M696 1951 c-4 -5 3 -7 14 -4 23 6 26 13 6 13 -8 0 -17 -4 -20 -9z"/>
<path d="M1203 43 c9 -2 23 -2 30 0 6 3 -1 5 -18 5 -16 0 -22 -2 -12 -5z"/>
</g>
</svg>
